<?xml version="1.0" standalone="no"?><!DOCTYPE svg PUBLIC "-//W3C//DTD SVG 1.1//EN" "http://www.w3.org/Graphics/SVG/1.1/DTD/svg11.dtd"><svg t="1730202749932" class="icon" viewBox="0 0 1024 1024" version="1.1" xmlns="http://www.w3.org/2000/svg" p-id="15047" xmlns:xlink="http://www.w3.org/1999/xlink" width="256" height="256"><path d="M393.44 784.21h-112.3c-25.97 0-47.73-17.82-53.85-41.89h-1.78v94.1c0 25.69 20.83 46.52 46.52 46.52h130.53V775.1c0 5.03-4.08 9.11-9.12 9.11zM642.2 784.21h111.31c25.97 0 47.73-17.82 53.85-41.89h1.78v94.1c0 25.69-20.83 46.52-46.52 46.52H633.09V775.1c0 5.03 4.08 9.11 9.11 9.11z" fill="#FFD524" p-id="15048"></path><path d="M891.04 421.64c-0.83 0-1.67-0.26-2.39-0.8L550.71 168.32c-20.08-15.3-48.28-15.54-68.62-0.62l-26.38 19.73a4.003 4.003 0 0 1-5.6-0.81 4.003 4.003 0 0 1 0.81-5.6l26.41-19.76c23.21-17.03 55.35-16.75 78.2 0.66l337.91 252.5a4.003 4.003 0 0 1 0.81 5.6 3.965 3.965 0 0 1-3.21 1.62zM389.81 235.74a4 4 0 0 1-3.21-1.6 4.003 4.003 0 0 1 0.81-5.6l4.77-3.57a4.003 4.003 0 0 1 5.6 0.81c1.32 1.77 0.96 4.28-0.81 5.6l-4.77 3.57c-0.72 0.53-1.56 0.79-2.39 0.79zM132.41 428.26a4 4 0 0 1-3.21-1.6 4.003 4.003 0 0 1 0.81-5.6l199.25-149.03a4.003 4.003 0 0 1 5.6 0.81c1.32 1.77 0.96 4.28-0.81 5.6L134.81 427.46c-0.72 0.54-1.56 0.8-2.4 0.8zM756.91 891.03H278.3c-33.23 0-60.26-31.98-60.26-71.29V487.37c0-2.21 1.79-4 4-4s4 1.79 4 4v332.37c0 34.9 23.44 63.29 53.26 63.29h478.61c27.82 0 51.26-28.39 51.26-63.29V487.11c0-2.21 1.79-4 4-4s4 1.79 4 4v332.63c0 39.31-27.03 71.29-60.26 71.29z" fill="#333333" p-id="15049"></path><path d="M629.58 883.11c-2.21 0-4-1.79-4-4V614.48H410.29v264.63c0 2.21-1.79 4-4 4s-4-1.79-4-4V610.48c0-2.21 1.79-4 4-4h223.29c2.21 0 4 1.79 4 4v268.63c0 2.21-1.79 4-4 4z" fill="#333333" p-id="15050"></path></svg>