<?xml version="1.0" standalone="no"?><!DOCTYPE svg PUBLIC "-//W3C//DTD SVG 1.1//EN" "http://www.w3.org/Graphics/SVG/1.1/DTD/svg11.dtd"><svg t="1730076977896" class="icon" viewBox="0 0 1024 1024" version="1.1" xmlns="http://www.w3.org/2000/svg" p-id="13575" xmlns:xlink="http://www.w3.org/1999/xlink" width="200" height="200"><path d="M966.278572 626.447083c0.856804-0.875612 1.707339-1.753314 2.555783-2.635195 16.143443-16.79754 44.160936-1.377156 38.449606 21.206946-22.594551 89.33123-70.044779 173.663739-142.321428 242.019988-199.441004 188.622285-515.873381 181.439759-707.018014-15.583386-191.102837-196.979259-189.284741-511.574733 5.456379-706.315852 66.421125-66.421125 146.801887-110.40861 231.694454-131.94783 22.546486-5.721779 38.351387 22.176597 21.574745 38.288694-1.933034 1.855712-3.851439 3.736502-5.755216 5.640279-154.893461 154.893461-152.48396 407.508562 7.180436 559.365593 154.145324 146.607538 399.375193 141.984976 548.183255-10.039237z" fill="#FCE25C" p-id="13576"></path><path d="M797.536231 940.668488c-198.026232 131.320899-468.818119 106.828841-639.593802-69.213052-191.109107-196.981349-189.29101-511.574733 5.45429-706.320032 66.412766-66.412766 146.785168-110.402341 231.692363-131.947829 3.176444-0.815009 6.206605-0.940395 9.048687-0.522442-26.331052 17.763012-51.324655 38.284514-74.625546 61.585406-194.7453 194.7453-196.563396 509.338683-5.454289 706.320032 126.389052 130.276016 307.571769 177.567423 473.478297 140.097917z" fill="#FBD307" p-id="13577"></path><path d="M818.201928 426.092852l14.966904 30.326685a16.174789 16.174789 0 0 0 12.179157 8.848069l33.467603 4.862886c13.267925 1.928854 18.565482 18.231119 8.965097 27.589092l-24.218299 23.605997a16.174789 16.174789 0 0 0-4.651819 14.316987l5.7176 33.333859c2.265306 13.213591-11.602381 23.290443-23.470163 17.052491l-29.935899-15.738028a16.183148 16.183148 0 0 0-15.054675 0l-29.935899 15.738028c-11.865692 6.237952-25.735469-3.8389-23.470162-17.052491l5.7176-33.333859a16.174789 16.174789 0 0 0-4.65182-14.316987l-24.218298-23.605997c-9.600385-9.357972-4.302828-25.662327 8.965096-27.589092l33.467604-4.862886a16.176879 16.176879 0 0 0 12.179156-8.848069l14.966905-30.326685c5.937025-12.022424 23.081466-12.022424 29.014312 0z" fill="#FCE25C" p-id="13578"></path><path d="M773.150751 542.296384c0 12.872959 2.403231 25.202579 6.79174 36.52911l-13.708866 7.209693c-11.869871 6.227503-25.72502-3.84517-23.468073-17.052491l5.725959-33.331769a16.132994 16.132994 0 0 0-4.660178-14.314897l-24.220389-23.614357c-9.592026-9.362152-4.304918-25.662327 8.965097-27.584912l33.478052-4.869155c5.26621-0.773213 9.821901-4.075044 12.183336-8.83971l14.962725-30.343403c5.934936-12.016155 23.071017-12.016155 29.005953 0l12.32962 25.014499c-33.958699 16.300175-57.384976 51.01119-57.384976 91.197392z" fill="#FBD307" p-id="13579"></path><path d="M683.416196 19.20495l21.867312 44.30722a34.443524 34.443524 0 0 0 25.931907 18.841331l48.896347 7.105205c28.249458 4.104301 39.530015 38.819494 19.087923 58.745414l-35.381829 34.489499a34.441435 34.441435 0 0 0-9.905491 30.485507l8.352794 48.699908c4.82527 28.134521-24.705214 49.590149-49.972575 36.307596l-43.734625-22.991606a34.441435 34.441435 0 0 0-32.052832 0l-43.734624 22.991606c-25.267361 13.284643-54.797846-8.170985-49.972576-36.307596l8.352795-48.699908a34.445614 34.445614 0 0 0-9.905491-30.485507l-35.381829-34.489499c-20.442092-19.925919-9.161534-54.641113 19.087923-58.745414l48.896347-7.105205a34.439345 34.439345 0 0 0 25.931907-18.841331L621.646891 19.20495c12.634726-25.599634 49.136669-25.599634 61.769305 0z" fill="#FCE25C" p-id="13580"></path><path d="M615.521786 225.209909c0 19.643801 3.197342 38.556184 9.090483 56.214707l-31.848035 16.759924c-25.265272 13.270015-54.793666-8.170985-49.966307-36.320134l8.359065-48.691549c1.901687-11.180248-1.797199-22.569473-9.905492-30.489687l-35.400637-34.48114c-20.437912-19.936368-9.153175-54.647383 19.100462-58.743324l48.900526-7.105205a34.502038 34.502038 0 0 0 25.933997-18.84969l21.858953-44.30304c12.643085-25.599634 49.1304-25.599634 61.773485 0l21.858953 44.30304c0.98219 1.985278 2.152459 3.866067 3.489909 5.600573-55.525084 29.92545-93.245362 88.606081-93.245362 156.105525z" fill="#FBD307" p-id="13581"></path></svg>